<?xml version="1.0" encoding="UTF-8"?>
<svg version="1.1" xmlns="http://www.w3.org/2000/svg" width="1024" height="1536">
<path d="..." fill="none" />
<path d="M 0 0 C 1.2 0 2.4 0 3.6 0 C 4.8 0 6.1 0 7.4 0 C 8.8 0 10.2 0 11.6 0 C 16 -0.1 20.5 -0.1 25 -0.1 C 26.6 -0.1 28.1 -0.1 29.7 -0.1 C 37 -0.1 44.2 -0.1 51.5 -0.1 C 59.9 -0.2 68.3 -0.2 76.7 -0.2 C 83.2 -0.3 89.7 -0.3 96.2 -0.3 C 100.1 -0.3 103.9 -0.3 107.8 -0.3 C 111.5 -0.3 115.1 -0.3 118.8 -0.3 C 120.7 -0.3 122.7 -0.3 124.6 -0.4 C 138.2 -0.3 150.7 3.9 160.6 13.3 C 163.4 16.2 165.6 19.4 167.9 22.6 C 174.3 31.5 180.4 36.3 191 39.1 C 195.1 39.7 199.1 39.7 203.2 39.6 C 204.4 39.6 205.5 39.6 206.7 39.6 C 209.2 39.6 211.8 39.6 214.3 39.6 C 218.3 39.6 222.2 39.6 226.2 39.6 C 234.7 39.7 243.1 39.7 251.6 39.6 C 260.7 39.6 269.8 39.6 279 39.7 C 283.5 39.7 288.1 39.7 292.7 39.6 C 295.1 39.6 297.5 39.7 299.9 39.7 C 301.6 39.6 301.6 39.6 303.2 39.6 C 314.4 39.7 322.9 43.5 331 51.1 C 338.8 59.5 342.6 68.5 342.7 80 C 342.7 80.9 342.8 81.8 342.8 82.8 C 342.8 85.9 342.8 88.9 342.8 92 C 342.8 93.1 342.8 94.2 342.8 95.3 C 342.7 119.5 339.2 142.9 335.2 166.6 C 333.2 178.5 331.5 190.4 329.7 202.3 C 329.6 203.2 329.4 204.2 329.3 205.2 C 328.5 210.2 327.8 215.3 327.1 220.3 C 325.6 230.5 324.1 240.7 322.6 250.9 C 322.4 252.4 322.4 252.4 322.1 253.9 C 318.4 279.2 314.6 304.5 310.8 329.8 C 310.7 330.6 310.6 331.3 310.5 332.2 C 309.9 335.9 309.3 339.7 308.8 343.4 C 307.9 349.4 307 355.5 306.1 361.5 C 305.9 362.9 305.9 362.9 305.7 364.3 C 305.5 366 305.2 367.6 305 369.2 C 303.4 380.1 299.4 389 292 397.1 C 291.4 397.8 290.9 398.5 290.3 399.2 C 282.7 407.7 270.9 413.5 259.6 414.3 C 256.8 414.4 254 414.4 251.1 414.4 C 250.1 414.4 249 414.4 247.9 414.4 C 244.3 414.4 240.7 414.4 237.2 414.4 C 234.6 414.4 232 414.5 229.4 414.5 C 223.2 414.5 216.9 414.5 210.7 414.5 C 205.6 414.5 200.5 414.5 195.4 414.5 C 181 414.5 166.5 414.5 152.1 414.5 C 151.3 414.5 150.6 414.5 149.8 414.5 C 148.6 414.5 148.6 414.5 147.4 414.5 C 134.8 414.5 122.2 414.5 109.6 414.6 C 96.6 414.6 83.6 414.6 70.7 414.6 C 63.4 414.6 56.1 414.6 48.8 414.6 C 42 414.7 35.2 414.7 28.3 414.6 C 25.8 414.6 23.3 414.6 20.8 414.7 C 4.4 414.7 -9.6 414.7 -23 404.1 C -23.7 403.6 -24.4 403.1 -25.1 402.6 C -35.7 394.1 -41.7 380.9 -43.5 367.6 C -43.6 363.9 -43.7 360.2 -43.6 356.6 C -43.6 355.2 -43.6 353.7 -43.7 352.3 C -43.7 348.5 -43.7 344.7 -43.6 340.9 C -43.6 336.8 -43.7 332.7 -43.7 328.5 C -43.7 320.5 -43.7 312.4 -43.7 304.4 C -43.7 297.8 -43.7 291.3 -43.7 284.7 C -43.7 283.8 -43.7 282.8 -43.7 281.9 C -43.7 280 -43.7 278.1 -43.7 276.2 C -43.7 258.4 -43.7 240.6 -43.6 222.8 C -43.6 207.6 -43.6 192.3 -43.6 177.1 C -43.7 159.3 -43.7 141.6 -43.7 123.9 C -43.7 122 -43.7 120.1 -43.7 118.2 C -43.7 117.3 -43.7 116.3 -43.7 115.4 C -43.7 108.8 -43.7 102.3 -43.7 95.7 C -43.7 87.8 -43.7 79.8 -43.7 71.8 C -43.6 67.7 -43.6 63.7 -43.7 59.6 C -43.7 55.9 -43.7 52.1 -43.6 48.4 C -43.6 46.4 -43.6 44.5 -43.7 42.5 C -43.5 30.4 -39.9 21.1 -31.5 12.3 C -27.6 8.9 -23.6 6.4 -19 4.1 C -18.3 3.8 -17.7 3.5 -17 3.2 C -11.5 0.6 -6.1 0 0 0 Z" fill="#06a6fe" transform="translate(363,489.9)"/>
<path d="M 0 0 C 1.2 0 2.4 0 3.6 0 C 4.8 0 6.1 0 7.4 0 C 8.8 0 10.2 0 11.6 0 C 16 -0.1 20.5 -0.1 25 -0.1 C 26.6 -0.1 28.1 -0.1 29.7 -0.1 C 37 -0.1 44.2 -0.1 51.5 -0.1 C 59.9 -0.2 68.3 -0.2 76.7 -0.2 C 83.2 -0.3 89.7 -0.3 96.2 -0.3 C 100.1 -0.3 103.9 -0.3 107.8 -0.3 C 111.5 -0.3 115.1 -0.3 118.8 -0.3 C 120.7 -0.3 122.7 -0.3 124.6 -0.4 C 138.2 -0.3 150.7 3.9 160.6 13.3 C 163.4 16.2 165.6 19.4 167.9 22.6 C 174.3 31.5 180.4 36.3 191 39.1 C 195.1 39.7 199.1 39.7 203.2 39.6 C 204.4 39.6 205.5 39.6 206.7 39.6 C 209.2 39.6 211.8 39.6 214.3 39.6 C 218.3 39.6 222.2 39.6 226.2 39.6 C 234.7 39.7 243.1 39.7 251.6 39.6 C 260.7 39.6 269.8 39.6 279 39.7 C 283.5 39.7 288.1 39.7 292.7 39.6 C 295.1 39.6 297.5 39.7 299.9 39.7 C 301.6 39.6 301.6 39.6 303.2 39.6 C 314.4 39.7 322.9 43.5 331 51.1 C 339.7 60.3 342.6 69.6 342.4 82.1 C 342.4 83.2 342.4 84.3 342.4 85.4 C 342.4 88.8 342.3 92.3 342.3 95.8 C 342.2 98.1 342.2 100.5 342.2 102.9 C 342.2 108.6 342.1 114.4 342 120.1 C 341.7 120.1 341.3 120.1 341 120.1 C 341 119 341 117.9 341 116.8 C 340.7 106.2 339.8 97.5 331.8 89.8 C 324.3 84.2 316.5 82.6 307.2 82.6 C 306.2 82.6 305.2 82.6 304.1 82.6 C 300.7 82.6 297.2 82.6 293.8 82.6 C 291.3 82.6 288.8 82.6 286.3 82.6 C 280.3 82.6 274.3 82.6 268.2 82.6 C 263.3 82.6 258.4 82.6 253.5 82.6 C 252.5 82.6 252.5 82.6 251.4 82.6 C 250 82.6 248.5 82.6 247.1 82.6 C 233.8 82.6 220.5 82.6 207.2 82.6 C 195.8 82.6 184.4 82.6 173 82.6 C 159.7 82.6 146.4 82.6 133.2 82.6 C 131.7 82.6 130.3 82.6 128.9 82.6 C 127.9 82.6 127.9 82.6 126.8 82.6 C 121.9 82.6 117 82.6 112.1 82.6 C 105.5 82.6 98.9 82.6 92.3 82.6 C 89.9 82.6 87.5 82.6 85.1 82.6 C 61.6 82.3 61.6 82.3 42 94.1 C 34.5 102.4 32.6 111.4 30.9 122.1 C 30.6 124.1 30.2 126.1 29.9 128.1 C 29.6 130.4 29.2 132.6 28.8 134.9 C 27.9 140.8 27 146.7 26 152.5 C 21.9 177.8 17.9 203.1 14 228.4 C 11 247.8 7.9 267.3 4.8 286.8 C 4.5 288.1 4.3 289.4 4.1 290.8 C 3.9 292.1 3.7 293.4 3.5 294.7 C 3.1 297.3 2.6 299.8 2.2 302.4 C 2 303.6 1.8 304.8 1.6 306 C -0.4 318.9 -2.5 331.9 -4.5 344.8 C -4.8 347.1 -5.2 349.5 -5.6 351.9 C -6.2 355.6 -6.7 359.4 -7.3 363.1 C -7.5 364.2 -7.7 365.3 -7.8 366.4 C -9.7 378.8 -10 390.5 -2.9 401.5 C 0.4 406 4.2 408.5 9.1 411.1 C 9.7 411.4 10.3 411.8 11 412.1 C 11 412.5 11 412.8 11 413.1 C 0 415 -9.4 413.4 -18.8 407.3 C -20.2 406.3 -21.6 405.2 -23 404.1 C -23.7 403.6 -24.4 403.1 -25.1 402.6 C -35.7 394.1 -41.7 380.9 -43.5 367.6 C -43.6 363.9 -43.7 360.2 -43.6 356.6 C -43.6 355.2 -43.6 353.7 -43.7 352.3 C -43.7 348.5 -43.7 344.7 -43.6 340.9 C -43.6 336.8 -43.7 332.7 -43.7 328.5 C -43.7 320.5 -43.7 312.4 -43.7 304.4 C -43.7 297.8 -43.7 291.3 -43.7 284.7 C -43.7 283.8 -43.7 282.8 -43.7 281.9 C -43.7 280 -43.7 278.1 -43.7 276.2 C -43.7 258.4 -43.7 240.6 -43.6 222.8 C -43.6 207.6 -43.6 192.3 -43.6 177.1 C -43.7 159.3 -43.7 141.6 -43.7 123.9 C -43.7 122 -43.7 120.1 -43.7 118.2 C -43.7 117.3 -43.7 116.3 -43.7 115.4 C -43.7 108.8 -43.7 102.3 -43.7 95.7 C -43.7 87.8 -43.7 79.8 -43.7 71.8 C -43.6 67.7 -43.6 63.7 -43.7 59.6 C -43.7 55.9 -43.7 52.1 -43.6 48.4 C -43.6 46.4 -43.6 44.5 -43.7 42.5 C -43.5 30.4 -39.9 21.1 -31.5 12.3 C -27.6 8.9 -23.6 6.4 -19 4.1 C -18.3 3.8 -17.7 3.5 -17 3.2 C -11.5 0.6 -6.1 0 0 0 Z" fill="#0062db" transform="translate(363,489.9)"/>
<path d="M 0 0 C 2.4 1.4 2.4 1.4 4 4 C 4.7 12.1 2.5 18.9 0.1 26.5 C -0.3 27.9 -0.7 29.2 -1.1 30.5 C -1.8 32.6 -2.4 34.6 -3 36.7 C -5.2 43.5 -7.2 50.3 -9.2 57.2 C -10 59.9 -10.8 62.5 -11.6 65.2 C -12.9 70 -14.3 74.7 -15.7 79.4 C -16.7 82.8 -17.7 86.2 -18.7 89.6 C -19.3 91.5 -19.8 93.4 -20.4 95.2 C -20.7 96.4 -21 97.5 -21.4 98.6 C -21.7 99.6 -22 100.6 -22.3 101.6 C -23 104 -23 104 -24 106 C -23.4 106 -22.7 106 -22.1 106 C -15.5 105.9 -8.9 105.9 -2.4 105.8 C 0.1 105.8 2.5 105.8 5 105.8 C 8.5 105.7 12 105.7 15.6 105.7 C 16.7 105.7 17.8 105.7 18.9 105.7 C 20.4 105.7 20.4 105.7 22 105.7 C 23.3 105.6 23.3 105.6 24.7 105.6 C 27.5 106.1 28.3 106.7 30 109 C 30.9 112.3 30.9 112.3 31 116 C 28 121.1 24.2 125.8 20.5 130.4 C 19.6 131.6 19.6 131.6 18.6 132.8 C 14.2 138.5 9.8 144.1 5.3 149.7 C 1.7 154.1 -1.8 158.6 -5.3 163.2 C -10.1 169.5 -15.1 175.7 -20 182 C -21.8 184.2 -23.5 186.5 -25.3 188.8 C -25.8 189.3 -26.2 189.9 -26.7 190.5 C -29.8 194.5 -33 198.6 -36.1 202.6 C -41.6 209.7 -47.1 216.7 -52.7 223.7 C -56 227.7 -59.1 231.7 -62.3 235.8 C -68.8 244.4 -68.8 244.4 -71.3 247.6 C -71.9 248.3 -72.5 249.1 -73.1 249.9 C -76.3 253.5 -78.7 255.8 -83.5 256.6 C -87 256 -87 256 -90 254.1 C -92.9 249.6 -92 246.2 -91 241 C -89.6 235.9 -88 230.9 -86.4 225.9 C -85.9 224.4 -85.4 222.9 -84.9 221.4 C -84.2 219 -83.4 216.6 -82.6 214.1 C -79.3 203.8 -76.1 193.5 -72.8 183.1 C -71.5 178.8 -70.2 174.5 -68.8 170.2 C -67.5 166.1 -66.3 162.1 -65 158 C -65.7 158 -66.3 158 -67 158 C -73.8 157.9 -80.6 157.9 -87.4 157.8 C -89.9 157.8 -92.4 157.7 -95 157.7 C -98.6 157.7 -102.3 157.7 -105.9 157.6 C -107.1 157.6 -108.2 157.6 -109.4 157.6 C -117.2 157.5 -117.2 157.5 -121.2 155.2 C -123 153 -123 153 -123.7 149.7 C -122.8 144.7 -120.5 141.9 -117.3 138.1 C -116.7 137.3 -116.1 136.6 -115.5 135.8 C -113.7 133.5 -111.9 131.3 -110 129 C -108.9 127.6 -107.7 126.2 -106.6 124.8 C -105 122.8 -103.3 120.8 -101.7 118.7 C -97.5 113.6 -93.5 108.4 -89.5 103.2 C -85.5 98 -81.4 92.9 -77.4 87.8 C -75.1 84.8 -72.8 81.9 -70.5 79 C -69.6 77.8 -68.7 76.7 -67.8 75.5 C -67.3 74.9 -66.8 74.3 -66.4 73.8 C -40.3 40.5 -40.3 40.5 -38.9 38.7 C -38 37.6 -37 36.4 -36.1 35.3 C -33.8 32.3 -31.5 29.4 -29.2 26.5 C -28.3 25.3 -27.4 24.1 -26.4 22.9 C -26 22.4 -25.5 21.8 -25.1 21.2 C -22.8 18.3 -20.5 15.3 -18.2 12.3 C -17.8 11.7 -17.3 11.2 -16.9 10.5 C -15.6 8.9 -14.4 7.3 -13.2 5.6 C -9.1 0.7 -6.5 -0.8 0 0 Z" fill="#0062da" transform="matrix(1,0,0,1,573,600)"/>
<path d="M 0 0 C 3.7 0.9 6.1 3 8.9 5.5 C 9.5 6 10.1 6.5 10.7 7 C 11.9 8 13.1 9 14.3 10 C 16.7 12.1 19.2 14 21.7 15.9 C 24.7 18.2 27.1 20.3 29 23.5 C 29 27.5 28.6 29.7 26.1 32.9 C 25.1 33.8 24.1 34.6 23 35.5 C 22.4 36.1 21.7 36.6 21 37.2 C 18.4 39.4 15.7 41.4 13 43.5 C 12.2 44.2 12.2 44.2 11.3 44.8 C 9.5 46.3 7.6 47.7 5.8 49 C 5.2 49.5 4.6 50 4 50.4 C 1.2 52.5 -0.6 53.5 -4.1 53.6 C -7.8 52.1 -8.9 50.9 -11 47.5 C -11.6 44.3 -11.6 41.2 -11.5 38 C -11.5 37.1 -11.5 36.2 -11.6 35.2 C -11.6 33.3 -11.6 31.4 -11.5 29.4 C -11.5 26.5 -11.6 23.6 -11.6 20.6 C -11.6 18.7 -11.6 16.9 -11.6 15 C -11.6 14.1 -11.6 13.2 -11.6 12.3 C -11.6 7.9 -11.4 6 -8.7 2.4 C -5.7 0.3 -3.7 -0.2 0 0 Z" fill="#0061da" transform="translate(592,810.5)"/>
<path d="M 0 0 C 0.3 0 0.7 0 1 0 C 1.3 4 1.7 7.9 2 12 C 1 11.7 0 11.3 -1 11 C -0.7 7.4 -0.3 3.7 0 0 Z" fill="#071f3a" transform="translate(671,831)"/>
<path d="M 0 0 C 0.3 0 0.7 0 1 0 C 1 3.6 1 7.3 1 11 C 0 11.3 -1 11.7 -2 12 C -1.9 10.4 -1.7 8.7 -1.6 7.1 C -1.5 6.2 -1.4 5.3 -1.3 4.4 C -1 2 -1 2 0 0 Z" fill="#080f1f" transform="translate(668,856)"/>
</svg>
